<svg id="icons" enable-background="new 0 0 64 64" height="512" viewBox="0 0 64 64" width="512" xmlns="http://www.w3.org/2000/svg"><g><g><path d="m15.004 45.004c-.553 0-1-.447-1-1v-16.74c0-.553.447-1 1-1s1 .447 1 1v16.74c0 .553-.447 1-1 1z" fill="#545c66"/></g><g><path d="m46.994 45.004c-.553 0-1-.447-1-1v-16.742c0-.553.447-1 1-1s1 .447 1 1v16.742c0 .553-.447 1-1 1z" fill="#545c66"/></g><path d="m44.006 48.006c-.553 0-1-.447-1-1s.447-1 1-1c1.111 0 2.016-.904 2.016-2.016 0-.553.447-1 1-1s1 .447 1 1c-.001 2.214-1.802 4.016-4.016 4.016z" fill="#545c66"/><path d="m43.984 47.994h-25.984c-.553 0-1-.447-1-1s.447-1 1-1h25.984c.553 0 1 .447 1 1s-.447 1-1 1z" fill="#545c66"/><path d="m18 48.006c-2.214 0-4.016-1.802-4.016-4.016 0-.553.447-1 1-1s1 .447 1 1c0 1.111.904 2.016 2.016 2.016.553 0 1 .447 1 1s-.447 1-1 1z" fill="#545c66"/><path d="m60.99 24-14 3.27-16 3.73-15.99-3.73-13.99-3.27 29.98-7.01z" fill="#656d78"/><path d="m46.99 43.99h.029c0 1.67-1.35 3.02-3.02 3.02l-.02-.02h-25.979v.02c-1.67 0-3.01-1.34-3.02-3.01h.02v-16.73l15.99 3.73 16-3.73z" fill="#545c66"/><path d="m30.992 31.996c-.076 0-.152-.009-.228-.026l-29.984-7c-.452-.105-.772-.509-.772-.974s.32-.868.772-.974l29.984-7.002c.15-.035.305-.035.455 0l29.998 7.002c.452.105.772.509.772.974s-.32.868-.772.974l-29.998 7c-.074.017-.151.026-.227.026zm-25.586-8 25.586 5.973 25.598-5.973-25.598-5.975z" fill="#656d78"/><path d="m61.006 33.008c-.553 0-1-.447-1-1v-8.012c0-.553.447-1 1-1s1 .447 1 1v8.012c0 .553-.447 1-1 1z" fill="#f6bb42"/><path d="m43.008 44.012h-24c-.553 0-1-.447-1-1s.447-1 1-1h24c.553 0 1 .447 1 1s-.447 1-1 1z" fill="#656d78"/><path d="m60.99 24.996h-29.998c-.553 0-1-.447-1-1s.447-1 1-1h29.998c.553 0 1 .447 1 1s-.447 1-1 1z" fill="#f6bb42"/><g fill="#ffce54"><path d="m61 32.01 1.99 7h-3.98z"/><path d="m59.009 40.008c-.092 0-.184-.013-.275-.038-.531-.152-.839-.705-.688-1.236l1.998-7c.152-.532.71-.834 1.236-.688.531.152.839.705.688 1.236l-1.998 7c-.126.44-.527.726-.961.726z"/><path d="m62.991 40.008c-.436 0-.836-.287-.961-.727l-1.986-7c-.15-.532.157-1.085.688-1.235.531-.153 1.084.157 1.235.688l1.986 7c.15.532-.157 1.085-.688 1.235-.091.027-.183.039-.274.039z"/><path d="m62.992 40.008h-3.984c-.553 0-1-.447-1-1s.447-1 1-1h3.984c.553 0 1 .447 1 1s-.447 1-1 1z"/></g></g></svg>